<!-- Generated by IcoMoon.io -->
<svg version="1.1" xmlns="http://www.w3.org/2000/svg" width="59" height="32" viewBox="0 0 59 32">
<title>Logo</title>
<path fill="#8e8f99" d="M21.714 4l4.004 3.815-7.433-0.004v18.51h19.429v-7.077l4 3.811v-19.054h-20zM37.538 18.796l-11.354-10.817h11.354v10.817zM34.013 23.613h-12.653v-12.449h0.894v11.606h11.759v0.843zM23.883 29.749l0.472-0.97h0.388l-0.684 1.284v0.748h-0.353v-0.748l-0.684-1.284h0.389l0.472 0.97zM25.622 28.78h0.084l0.767 2.031h-0.368l-0.164-0.476h-0.786l-0.164 0.476h-0.367l0.765-2.031h0.234zM25.249 30.058h0.595l-0.298-0.862-0.297 0.862zM27.704 29.721c-0.070 0.050-0.133 0.1-0.188 0.15-0.059 0.054-0.106 0.113-0.141 0.176s-0.052 0.135-0.052 0.218c0 0.112 0.026 0.211 0.080 0.297s0.13 0.154 0.229 0.204c0.099 0.049 0.215 0.074 0.35 0.074 0.112 0 0.217-0.018 0.315-0.053 0.075-0.027 0.145-0.065 0.208-0.114l0.118 0.139h0.389l-0.298-0.351c0.021-0.029 0.041-0.058 0.058-0.090 0.042-0.075 0.072-0.157 0.091-0.245s0.029-0.182 0.029-0.28h-0.29c0 0.109-0.017 0.208-0.052 0.297-0.011 0.029-0.023 0.056-0.036 0.082l-0.402-0.475 0.141-0.103c0.054-0.039 0.101-0.080 0.142-0.124s0.073-0.092 0.096-0.145c0.023-0.053 0.035-0.112 0.035-0.176 0-0.081-0.020-0.155-0.061-0.223s-0.098-0.122-0.173-0.163c-0.074-0.042-0.163-0.063-0.266-0.063-0.107 0-0.2 0.021-0.28 0.063-0.080 0.041-0.142 0.099-0.186 0.176s-0.066 0.167-0.066 0.273c0 0.069 0.014 0.136 0.043 0.201s0.069 0.131 0.121 0.2c0.014 0.018 0.029 0.037 0.044 0.057zM27.871 29.925l0.452 0.532c-0.033 0.025-0.067 0.046-0.103 0.064-0.073 0.034-0.147 0.052-0.225 0.052-0.072 0-0.133-0.014-0.183-0.042s-0.087-0.067-0.113-0.116c-0.025-0.048-0.038-0.102-0.038-0.162 0-0.023 0.004-0.050 0.011-0.081s0.023-0.064 0.046-0.1c0.024-0.037 0.061-0.076 0.11-0.116l0.042-0.031zM27.951 29.554c-0.008-0.010-0.016-0.020-0.023-0.029-0.037-0.048-0.066-0.094-0.088-0.138s-0.032-0.088-0.032-0.13c0-0.044 0.008-0.083 0.024-0.119s0.041-0.065 0.074-0.087c0.032-0.022 0.073-0.034 0.12-0.034 0.068 0 0.12 0.020 0.158 0.061s0.056 0.086 0.056 0.134c0 0.057-0.013 0.104-0.038 0.142s-0.067 0.075-0.126 0.114l-0.125 0.084zM31.505 30.15c-0.011 0.133-0.048 0.252-0.112 0.356s-0.152 0.185-0.266 0.244-0.253 0.089-0.417 0.089c-0.126 0-0.239-0.022-0.339-0.067s-0.186-0.11-0.258-0.192c-0.072-0.084-0.127-0.185-0.165-0.303s-0.056-0.25-0.056-0.396v-0.169c0-0.146 0.019-0.278 0.057-0.396s0.095-0.219 0.167-0.303c0.073-0.085 0.16-0.149 0.261-0.194 0.102-0.045 0.217-0.067 0.345-0.067 0.162 0 0.299 0.030 0.41 0.089s0.198 0.142 0.259 0.247c0.062 0.105 0.1 0.226 0.114 0.361h-0.349c-0.009-0.087-0.030-0.162-0.061-0.225s-0.076-0.11-0.137-0.142c-0.060-0.034-0.14-0.050-0.237-0.050-0.080 0-0.15 0.015-0.209 0.045s-0.109 0.073-0.149 0.131c-0.040 0.058-0.070 0.129-0.091 0.213s-0.029 0.18-0.029 0.287v0.172c0 0.102 0.009 0.195 0.026 0.279s0.046 0.154 0.084 0.213c0.038 0.060 0.087 0.106 0.145 0.138s0.129 0.049 0.211 0.049c0.1 0 0.18-0.016 0.241-0.047s0.109-0.078 0.141-0.138c0.033-0.061 0.054-0.136 0.064-0.225h0.349zM33.443 29.851v-0.112c0-0.153-0.020-0.291-0.061-0.412s-0.097-0.226-0.172-0.311c-0.074-0.087-0.163-0.152-0.266-0.197s-0.218-0.068-0.343-0.068c-0.125 0-0.239 0.023-0.342 0.068s-0.191 0.11-0.266 0.197c-0.074 0.086-0.132 0.189-0.173 0.311s-0.061 0.258-0.061 0.412v0.112c0 0.154 0.020 0.291 0.061 0.413s0.1 0.226 0.176 0.311c0.075 0.086 0.164 0.151 0.266 0.197s0.217 0.067 0.342 0.067c0.126 0 0.24-0.022 0.343-0.067s0.192-0.111 0.265-0.197c0.074-0.086 0.132-0.189 0.172-0.311s0.060-0.259 0.060-0.413zM33.092 29.737v0.114c0 0.113-0.011 0.214-0.033 0.301s-0.053 0.161-0.095 0.222c-0.042 0.059-0.093 0.105-0.153 0.135s-0.13 0.045-0.208 0.045c-0.077 0-0.146-0.015-0.206-0.045s-0.113-0.076-0.156-0.135c-0.043-0.060-0.075-0.134-0.098-0.222s-0.033-0.188-0.033-0.301v-0.114c0-0.113 0.011-0.213 0.033-0.3s0.054-0.16 0.096-0.219c0.043-0.059 0.094-0.104 0.155-0.134s0.129-0.046 0.206-0.046 0.147 0.015 0.208 0.046c0.061 0.030 0.113 0.074 0.155 0.134s0.075 0.132 0.096 0.219c0.022 0.087 0.033 0.186 0.033 0.3z"></path>
</svg>
